Coordinates
version=1
nRows=14
nColumns=40
inDegrees=yes

Units are S.I. units (second, meters, Newtons, ...)
If the header above contains a line with 'inDegrees', this indicates whether rotational values are in degrees (yes) or radians (no).

endheader
time	pelvis_tilt	pelvis_list	pelvis_rotation	pelvis_tx	pelvis_ty	pelvis_tz	hip_flexion_r	hip_adduction_r	hip_rotation_r	knee_angle_r	knee_angle_r_beta	ankle_angle_r	subtalar_angle_r	mtp_angle_r	hip_flexion_l	hip_adduction_l	hip_rotation_l	knee_angle_l	knee_angle_l_beta	ankle_angle_l	subtalar_angle_l	mtp_angle_l	lumbar_extension	lumbar_bending	lumbar_rotation	arm_flex_r	arm_add_r	arm_rot_r	elbow_flex_r	pro_sup_r	wrist_flex_r	wrist_dev_r	arm_flex_l	arm_add_l	arm_rot_l	elbow_flex_l	pro_sup_l	wrist_flex_l	wrist_dev_l
      3.00000000	    -26.12287002	     10.93111138	     -6.44792776	      0.13721830	      0.83212315	     -1.18895903	     40.17766419	    -10.65068481	     -4.00065749	      5.15342384	      0.08994421	    -11.48116753	     -3.79208922	      0.00000000	     33.23647146	     -0.67352328	    -26.90848391	      0.89317439	      0.01558883	    -14.41060591	      0.47250557	      0.00000000	     37.12742102	     10.63363822	     -2.27255620	     73.93036298	     47.01893701	    -75.48121414	    138.23588167	     44.70236534	      0.00000000	      0.00000000	     13.80121244	    -54.19989989	    -81.37273526	      4.60915666	     44.70236534	      0.00000000	      0.00000000
      3.00500000	    -26.07778856	     10.88112597	     -6.42890714	      0.13705303	      0.83204401	     -1.18890962	     40.16929018	    -10.62438033	     -3.93422896	      5.22048613	      0.09111467	    -11.51048089	     -3.93211942	      0.00000000	     33.22303747	     -0.72218068	    -26.74355793	      0.92345953	      0.01611741	    -14.42326589	      0.34467720	      0.00000000	     36.83856915	     10.65971048	     -2.83015872	     74.05023201	     47.51771764	    -75.48531419	    138.15295202	     44.74163471	      0.00000000	      0.00000000	     12.45508847	    -54.18517374	    -81.26196827	      4.67398298	     44.74163471	      0.00000000	      0.00000000
      3.01000000	    -26.04812817	     10.84199333	     -6.46662825	      0.13677820	      0.83192222	     -1.18872673	     40.23567781	    -10.55943040	     -3.80286707	      5.36629221	      0.09365947	    -11.57854074	     -4.11896173	      0.00000000	     33.22333598	     -0.80438340	    -26.58297285	      0.94429130	      0.01648099	    -14.50257849	      0.23483155	      0.00000000	     36.68799989	     10.68318793	     -2.94965451	     73.79464740	     47.62957898	    -75.34451360	    138.10856268	     44.77549877	      0.00000000	      0.00000000	     12.05021577	    -54.18072389	    -81.34740453	      4.78096271	     44.77549877	      0.00000000	      0.00000000
      3.01500000	    -26.03295488	     10.77534398	     -6.30650964	      0.13663531	      0.83181667	     -1.18896009	     40.27520225	    -10.63181798	     -4.01923700	      5.52694354	      0.09646336	    -11.39007290	     -4.06251564	      0.00000000	     33.25228848	     -0.77029022	    -26.21166768	      0.96642977	      0.01686738	    -14.59504428	     -0.07100389	      0.00000000	     36.97252167	     10.60793435	     -2.36864101	     73.50665402	     46.75468491	    -75.35483710	    138.32746019	     44.89452919	      0.00000000	      0.00000000	     14.05179700	    -54.09279300	    -81.49945504	      4.63196156	     44.89452919	      0.00000000	      0.00000000
      3.02000000	    -25.97271747	     10.87447730	     -6.36721506	      0.13641082	      0.83168297	     -1.18879539	     40.41189548	    -10.69549816	     -3.89050385	      5.78600237	      0.10098479	    -11.23504498	     -4.05853204	      0.00000000	     33.22806726	     -0.72371547	    -26.23337477	      0.98294870	      0.01715569	    -14.65402009	     -0.14570643	      0.00000000	     36.43980843	     10.55986892	     -3.14121729	     73.76753688	     47.75392077	    -75.27254236	    138.26974028	     44.90508148	      0.00000000	      0.00000000	     11.70329429	    -53.97458895	    -80.61509850	      4.94848778	     44.90508148	      0.00000000	      0.00000000
      3.02500000	    -25.88422932	     10.76842757	     -6.30248462	      0.13632088	      0.83170395	     -1.18885168	     40.32217067	    -10.67155492	     -3.97229983	      5.84258592	      0.10197236	    -11.25481698	     -4.11521005	      0.00000000	     33.17249696	     -0.78449987	    -25.97501048	      1.02760302	      0.01793506	    -14.67716513	     -0.30078828	      0.00000000	     36.13909340	     10.59199195	     -3.75870109	     73.64805540	     48.12561737	    -75.02992933	    138.18190153	     44.91307755	      0.00000000	      0.00000000	     10.40989832	    -53.89063190	    -80.67998349	      5.12030197	     44.91307755	      0.00000000	      0.00000000
      3.03000000	    -25.89100058	     10.71118447	     -6.26324060	      0.13606991	      0.83153181	     -1.18884680	     40.38152183	    -10.63924601	     -3.94596673	      5.93685017	      0.10361758	    -11.26567230	     -4.27512968	      0.00000000	     33.21632561	     -0.83505236	    -25.70089348	      1.05246038	      0.01836890	    -14.76040893	     -0.51503024	      0.00000000	     36.59365728	     10.55453615	     -2.71713025	     73.03128203	     46.89204977	    -74.96229344	    138.30895156	     44.94281442	      0.00000000	      0.00000000	     13.25282681	    -53.96578128	    -81.52665032	      4.83479711	     44.94281442	      0.00000000	      0.00000000
      3.03500000	    -25.79523328	     10.72791346	     -6.30090958	      0.13592335	      0.83148809	     -1.18874142	     40.40912243	    -10.65734192	     -3.88783374	      6.12705390	      0.10693726	    -11.15811423	     -4.27452635	      0.00000000	     33.15267196	     -0.84547335	    -25.66446329	      1.09540589	      0.01911844	    -14.75924514	     -0.57267441	      0.00000000	     36.24570328	     10.51397791	     -3.08964872	     72.84624413	     47.28274980	    -74.61976586	    138.29749067	     44.96036581	      0.00000000	      0.00000000	     12.12370971	    -53.92432537	    -81.43228252	      5.02584406	     44.96036581	      0.00000000	      0.00000000
      3.04000000	    -25.81214266	     10.60312433	     -6.18478002	      0.13569107	      0.83131528	     -1.18896065	     40.45433864	    -10.63515226	     -4.03954991	      6.23399505	      0.10880374	    -11.15738045	     -4.33997245	      0.00000000	     33.21506453	     -0.89975150	    -25.24529430	      1.11907017	      0.01953146	    -14.86509976	     -0.88015198	      0.00000000	     36.25045360	     10.56587552	     -3.45443668	     73.08357043	     47.33990876	    -75.04717720	    138.04333709	     44.96606633	      0.00000000	      0.00000000	     11.73094767	    -53.88103011	    -81.47790202	      4.99440218	     44.96606633	      0.00000000	      0.00000000
      3.04500000	    -25.72310079	     10.64600891	     -6.26081211	      0.13550675	      0.83123069	     -1.18880339	     40.48210430	    -10.63755470	     -3.89132423	      6.37069340	      0.11118958	    -11.11359199	     -4.42216655	      0.00000000	     33.15504402	     -0.91157274	    -25.22935516	      1.15525803	      0.02016306	    -14.85738185	     -0.94711633	      0.00000000	     36.05260302	     10.52786939	     -3.38999722	     72.86104742	     47.33429756	    -74.86984309	    138.12419900	     44.97395021	      0.00000000	      0.00000000	     11.60162419	    -53.81238533	    -81.48592877	      5.14537112	     44.97395021	      0.00000000	      0.00000000
      3.05000000	    -25.59330887	     10.73495944	     -6.36635509	      0.13534511	      0.83120987	     -1.18859421	     40.47332626	    -10.66483523	     -3.69222646	      6.48968027	      0.11326629	    -11.05844567	     -4.49266122	      0.00000000	     33.05888230	     -0.89619057	    -25.32007869	      1.20036106	      0.02095025	    -14.87343502	     -0.95484511	      0.00000000	     35.85599816	     10.43984884	     -3.18145580	     72.57635871	     47.22662850	    -74.72094175	    138.21013530	     44.98016842	      0.00000000	      0.00000000	     11.71905954	    -53.70530078	    -81.33336875	      5.37141903	     44.98016842	      0.00000000	      0.00000000
      3.05500000	    -25.58304594	     10.69460095	     -6.33014622	      0.13508384	      0.83104241	     -1.18870295	     40.51967671	    -10.65982577	     -3.68043506	      6.57316270	      0.11472333	    -11.11724920	     -4.59349515	      0.00000000	     33.08431494	     -0.91252581	    -25.04543382	      1.22024708	      0.02129733	    -14.91167763	     -1.22901061	      0.00000000	     35.92082049	     10.43278234	     -3.06702770	     72.82996617	     46.90010790	    -75.39641147	    138.06861742	     44.98481158	      0.00000000	      0.00000000	     12.12366053	    -53.51690999	    -81.39536948	      5.69371780	     44.98481158	      0.00000000	      0.00000000
      3.06000000	    -25.46739133	     10.74575652	     -6.40657002	      0.13491423	      0.83099163	     -1.18857623	     40.56525410	    -10.69042499	     -3.61488044	      6.79229341	      0.11854788	    -10.97553112	     -4.58831531	      0.00000000	     33.01035388	     -0.91927800	    -25.09690058	      1.28057401	      0.02235023	    -14.89550378	     -1.21394852	      0.00000000	     35.75655536	     10.36977287	     -2.87796072	     72.46089701	     46.81358642	    -75.05467625	    138.18738057	     44.98902942	      0.00000000	      0.00000000	     12.41006301	    -53.57808834	    -81.42893177	      5.48682705	     44.98902942	      0.00000000	      0.00000000
      3.06500000	    -25.41512384	     10.75969910	     -6.39818659	      0.13467062	      0.83085430	     -1.18868109	     40.61809195	    -10.73644020	     -3.58877728	      6.93980559	      0.12112246	    -10.89731445	     -4.56513552	      0.00000000	     33.00875882	     -0.90309946	    -24.95562483	      1.33044739	      0.02322069	    -14.93283893	     -1.35571949	      0.00000000	     35.28070510	     10.36763686	     -3.63230683	     72.09993381	     47.59148352	    -74.05234756	    138.23044454	     44.99355876	      0.00000000	      0.00000000	     10.35880739	    -53.47089207	    -81.52078917	      5.82089009	     44.99355876	      0.00000000	      0.00000000
